# MagicaVoxel @ Ephtracy

# group
o C

# material
mtllib m-8-C.mtl
usemtl palette

# normals
vn -1 0 0
vn 1 0 0
vn 0 0 1
vn 0 0 -1
vn 0 -1 0
vn 0 1 0

# texcoords
vt 0.291016 0.5
vt 0.294922 0.5

# verts
v -3.3 0 -3.7
v -3.3 0 -4.2
v -3.3 0.1 -3.7
v -3.3 0.1 -4.2
v -3.2 0 -3.6
v -3.2 0 -3.7
v -3.2 0 -4.2
v -3.2 0 -4.3
v -3.2 0.1 -3.6
v -3.2 0.1 -3.7
v -3.2 0.1 -4.2
v -3.2 0.1 -4.3
v -3.1 0 -3.8
v -3.1 0 -4.1
v -3.1 0.1 -3.8
v -3.1 0.1 -4.1
v -2.6 0 -3.6
v -2.6 0 -3.7
v -2.6 0 -3.8
v -2.6 0 -4.1
v -2.6 0 -4.3
v -2.6 0.1 -3.6
v -2.6 0.1 -3.7
v -2.6 0.1 -3.8
v -2.6 0.1 -4.1
v -2.6 0.1 -4.3
v -3.2 0 -3.6
v -3.2 0.1 -3.6
v -2.6 0 -3.6
v -2.6 0.1 -3.6
v -3.3 0 -3.7
v -3.3 0.1 -3.7
v -3.2 0 -3.7
v -3.2 0.1 -3.7
v -3.1 0 -4.1
v -3.1 0.1 -4.1
v -2.6 0 -4.1
v -2.6 0.1 -4.1
v -3.1 0 -3.8
v -3.1 0.1 -3.8
v -2.6 0 -3.8
v -2.6 0.1 -3.8
v -3.3 0 -4.2
v -3.3 0.1 -4.2
v -3.2 0 -4.2
v -3.2 0.1 -4.2
v -3.2 0 -4.3
v -3.2 0.1 -4.3
v -2.6 0 -4.3
v -2.6 0.1 -4.3
v -3.2 0 -3.6
v -2.6 0 -3.6
v -3.3 0 -3.7
v -3.2 0 -3.7
v -2.6 0 -3.7
v -3.1 0 -3.8
v -2.6 0 -3.8
v -3.1 0 -4.1
v -2.6 0 -4.1
v -3.3 0 -4.2
v -3.2 0 -4.2
v -3.2 0 -4.3
v -2.6 0 -4.3
v -3.2 0.1 -3.6
v -2.6 0.1 -3.6
v -3.3 0.1 -3.7
v -3.2 0.1 -3.7
v -2.6 0.1 -3.7
v -3.1 0.1 -3.8
v -2.6 0.1 -3.8
v -3.1 0.1 -4.1
v -2.6 0.1 -4.1
v -3.3 0.1 -4.2
v -3.2 0.1 -4.2
v -3.2 0.1 -4.3
v -2.6 0.1 -4.3

# faces
f 3/2/1 2/2/1 1/2/1
f 4/2/1 2/2/1 3/2/1
f 9/1/1 6/1/1 5/1/1
f 10/1/1 6/1/1 9/1/1
f 11/2/1 8/2/1 7/2/1
f 12/2/1 8/2/1 11/2/1
f 13/2/2 14/2/2 15/2/2
f 15/2/2 14/2/2 16/2/2
f 17/1/2 18/1/2 22/1/2
f 18/2/2 19/2/2 23/2/2
f 22/1/2 18/1/2 23/1/2
f 23/2/2 19/2/2 24/2/2
f 20/2/2 21/2/2 25/2/2
f 25/2/2 21/2/2 26/2/2
f 29/1/3 28/1/3 27/1/3
f 30/1/3 28/1/3 29/1/3
f 33/2/3 32/2/3 31/2/3
f 34/2/3 32/2/3 33/2/3
f 37/2/3 36/2/3 35/2/3
f 38/2/3 36/2/3 37/2/3
f 39/2/4 40/2/4 41/2/4
f 41/2/4 40/2/4 42/2/4
f 43/2/4 44/2/4 45/2/4
f 45/2/4 44/2/4 46/2/4
f 47/2/4 48/2/4 49/2/4
f 49/2/4 48/2/4 50/2/4
f 54/1/5 52/1/5 51/1/5
f 55/1/5 52/1/5 54/1/5
f 56/2/5 54/2/5 53/2/5
f 56/2/5 55/2/5 54/2/5
f 57/2/5 55/2/5 56/2/5
f 58/2/5 56/2/5 53/2/5
f 60/2/5 58/2/5 53/2/5
f 60/2/5 59/2/5 58/2/5
f 61/2/5 59/2/5 60/2/5
f 62/2/5 59/2/5 61/2/5
f 63/2/5 59/2/5 62/2/5
f 64/1/6 65/1/6 67/1/6
f 67/1/6 65/1/6 68/1/6
f 66/2/6 67/2/6 69/2/6
f 67/2/6 68/2/6 69/2/6
f 69/2/6 68/2/6 70/2/6
f 66/2/6 69/2/6 71/2/6
f 66/2/6 71/2/6 73/2/6
f 71/2/6 72/2/6 73/2/6
f 73/2/6 72/2/6 74/2/6
f 74/2/6 72/2/6 75/2/6
f 75/2/6 72/2/6 76/2/6
